<?xml version="1.0" encoding="UTF-8" standalone="no"?>
<svg
   xmlns:dc="http://purl.org/dc/elements/1.1/"
   xmlns:cc="http://creativecommons.org/ns#"
   xmlns:rdf="http://www.w3.org/1999/02/22-rdf-syntax-ns#"
   xmlns:svg="http://www.w3.org/2000/svg"
   xmlns="http://www.w3.org/2000/svg"
   xml:space="preserve"
   style="enable-background:new 0 0 477 477;"
   viewBox="0 0 477 477"
   y="0px"
   x="0px"
   id="Capa_1"
   version="1.1"><metadata
   id="metadata913"><rdf:RDF><cc:Work
       rdf:about=""><dc:format>image/svg+xml</dc:format><dc:type
         rdf:resource="http://purl.org/dc/dcmitype/StillImage" /><dc:title></dc:title></cc:Work></rdf:RDF></metadata><defs
   id="defs911" />
<g
   id="g876">
	<g
   id="g874">
		<path
   style="fill:#ffffff;fill-opacity:1"
   id="path870"
   d="M 238.4,0 C 133,0 47.2,85.8 47.2,191.2 c 0,12 1.1,24.1 3.4,35.9 0.1,0.7 0.5,2.8 1.3,6.4 2.9,12.9 7.2,25.6 12.8,37.7 20.6,48.5 65.9,123 165.3,202.8 2.5,2 5.5,3 8.5,3 3,0 6,-1 8.5,-3 99.3,-79.8 144.7,-154.3 165.3,-202.8 5.6,-12.1 9.9,-24.7 12.8,-37.7 0.8,-3.6 1.2,-5.7 1.3,-6.4 2.2,-11.8 3.4,-23.9 3.4,-35.9 C 429.6,85.8 343.8,0 238.4,0 Z m 161.2,222.4 c 0,0.2 -0.1,0.4 -0.1,0.6 -0.1,0.5 -0.4,2 -0.9,4.3 0,0.1 0,0.1 0,0.2 -2.5,11.2 -6.2,22.1 -11.1,32.6 -0.1,0.1 -0.1,0.3 -0.2,0.4 C 368.6,304.8 327.6,372.4 238.4,446.1 149.2,372.4 108.2,304.8 89.5,260.5 c -0.1,-0.1 -0.1,-0.3 -0.2,-0.4 -4.8,-10.4 -8.5,-21.4 -11.1,-32.6 0,-0.1 0,-0.1 0,-0.2 -0.6,-2.3 -0.8,-3.8 -0.9,-4.3 0,-0.2 -0.1,-0.4 -0.1,-0.7 -2,-10.3 -3,-20.7 -3,-31.2 0,-90.5 73.7,-164.2 164.2,-164.2 90.5,0 164.2,73.7 164.2,164.2 0,10.6 -1,21.1 -3,31.3 z" />
		<path
   style="fill:#ffffff;fill-opacity:1"
   id="path872"
   d="m 238.4,71.9 c -66.9,0 -121.4,54.5 -121.4,121.4 0,66.9 54.5,121.4 121.4,121.4 66.9,0 121.4,-54.5 121.4,-121.4 0,-66.9 -54.5,-121.4 -121.4,-121.4 z m 0,215.8 c -52.1,0 -94.4,-42.4 -94.4,-94.4 0,-52 42.4,-94.4 94.4,-94.4 52,0 94.4,42.4 94.4,94.4 0,52 -42.3,94.4 -94.4,94.4 z" />
	</g>
</g>
<g
   id="g878">
</g>
<g
   id="g880">
</g>
<g
   id="g882">
</g>
<g
   id="g884">
</g>
<g
   id="g886">
</g>
<g
   id="g888">
</g>
<g
   id="g890">
</g>
<g
   id="g892">
</g>
<g
   id="g894">
</g>
<g
   id="g896">
</g>
<g
   id="g898">
</g>
<g
   id="g900">
</g>
<g
   id="g902">
</g>
<g
   id="g904">
</g>
<g
   id="g906">
</g>
</svg>