<?xml version="1.0" encoding="UTF-8" standalone="no"?>
<svg
   xmlns:dc="http://purl.org/dc/elements/1.1/"
   xmlns:cc="http://creativecommons.org/ns#"
   xmlns:rdf="http://www.w3.org/1999/02/22-rdf-syntax-ns#"
   xmlns:svg="http://www.w3.org/2000/svg"
   xmlns="http://www.w3.org/2000/svg"
   xml:space="preserve"
   style="enable-background:new 0 0 55.017 55.017;"
   viewBox="0 0 55.017 55.017"
   y="0px"
   x="0px"
   id="Capa_1"
   version="1.1"><metadata
   id="metadata943"><rdf:RDF><cc:Work
       rdf:about=""><dc:format>image/svg+xml</dc:format><dc:type
         rdf:resource="http://purl.org/dc/dcmitype/StillImage" /><dc:title></dc:title></cc:Work></rdf:RDF></metadata><defs
   id="defs941" />
<g
   id="g906">
	<path
   style="fill:#ffffff;fill-opacity:1"
   id="path880"
   d="M 51.688,23.013 H 40.789 c -0.553,0 -1,0.447 -1,1 0,0.553 0.447,1 1,1 h 9.102 l 2.899,27 H 2.268 l 3.403,-27 h 9.118 c 0.553,0 1,-0.447 1,-1 0,-0.553 -0.447,-1 -1,-1 H 3.907 L 0,54.013 h 55.017 z" />
	<path
   style="fill:#ffffff;fill-opacity:1"
   id="path882"
   d="m 26.654,38.968 c -0.147,0.087 -0.304,0.164 -0.445,0.255 -0.22,0.142 -0.435,0.291 -0.646,0.445 -0.445,0.327 -0.541,0.953 -0.215,1.398 0.196,0.267 0.5,0.408 0.808,0.408 0.205,0 0.412,-0.063 0.591,-0.193 0.178,-0.131 0.359,-0.257 0.548,-0.379 0.321,-0.208 0.662,-0.403 1.014,-0.581 0.468,-0.237 0.658,-0.791 0.462,-1.269 0.008,-0.008 0.018,-0.014 0.025,-0.022 1.809,-1.916 7.905,-9.096 10.429,-21.058 0.512,-2.426 0.627,-4.754 0.342,-6.919 C 38.707,4.478 34.622,1.002 27.754,1.002 c -6.866,0 -10.951,3.476 -11.813,10.051 -0.284,2.166 -0.169,4.494 0.343,6.919 2.499,11.846 8.499,18.998 10.37,20.996 z m -8.73,-27.654 c 0.733,-5.592 3.949,-8.311 9.831,-8.311 5.883,0 9.098,2.719 9.83,8.311 0.255,1.94 0.148,4.043 -0.316,6.247 C 35,28.314 29.59,35.137 27.755,37.207 25.918,35.135 20.509,28.309 18.241,17.561 17.776,15.357 17.67,13.255 17.924,11.314 Z" />
	<path
   style="fill:#ffffff;fill-opacity:1"
   id="path884"
   d="m 27.755,19.925 c 4.051,0 7.346,-3.295 7.346,-7.346 0,-4.051 -3.295,-7.346 -7.346,-7.346 -4.051,0 -7.346,3.295 -7.346,7.346 0,4.051 3.295,7.346 7.346,7.346 z m 0,-12.691 c 2.947,0 5.346,2.398 5.346,5.346 0,2.948 -2.398,5.346 -5.346,5.346 -2.948,0 -5.346,-2.398 -5.346,-5.346 0,-2.948 2.399,-5.346 5.346,-5.346 z" />
	<path
   style="fill:#ffffff;fill-opacity:1"
   id="path886"
   d="m 31.428,37.17 c -0.54,0.114 -0.884,0.646 -0.769,1.187 0.1,0.47 0.515,0.791 0.977,0.791 0.069,0 0.14,-0.007 0.21,-0.022 0.586,-0.124 1.221,-0.229 1.886,-0.313 0.548,-0.067 0.938,-0.567 0.869,-1.115 -0.068,-0.549 -0.563,-0.945 -1.115,-0.869 -0.723,0.089 -1.416,0.204 -2.058,0.341 z" />
	<path
   style="fill:#ffffff;fill-opacity:1"
   id="path888"
   d="m 36.599,37.576 c 0.022,0.537 0.466,0.957 0.998,0.957 0.015,0 0.029,0 0.044,-0.001 l 2.001,-0.083 c 0.551,-0.025 0.979,-0.493 0.953,-1.044 -0.025,-0.553 -0.539,-0.984 -1.044,-0.954 l -1.996,0.083 c -0.552,0.023 -0.98,0.489 -0.956,1.042 z" />
	<path
   style="fill:#ffffff;fill-opacity:1"
   id="path890"
   d="m 22.433,42.177 c -0.514,0.388 -1.045,0.761 -1.58,1.107 -0.463,0.301 -0.595,0.92 -0.294,1.384 0.191,0.295 0.513,0.455 0.84,0.455 0.187,0 0.375,-0.052 0.544,-0.161 0.573,-0.372 1.144,-0.772 1.695,-1.188 0.44,-0.333 0.528,-0.96 0.196,-1.401 -0.333,-0.437 -0.958,-0.529 -1.401,-0.196 z" />
	<path
   style="fill:#ffffff;fill-opacity:1"
   id="path892"
   d="m 44.72,35.583 c -0.338,0.237 -0.777,0.409 -1.346,0.526 -0.541,0.111 -0.889,0.641 -0.777,1.182 0.098,0.473 0.514,0.798 0.979,0.798 0.067,0 0.135,-0.007 0.203,-0.021 0.842,-0.174 1.526,-0.452 2.096,-0.853 l 0.134,-0.098 c 0.44,-0.334 0.527,-0.961 0.194,-1.401 -0.334,-0.44 -0.96,-0.526 -1.401,-0.194 z" />
	<path
   style="fill:#ffffff;fill-opacity:1"
   id="path894"
   d="M 8.86,43.402 C 9.005,42.869 8.689,42.32 8.156,42.176 7.627,42.027 7.074,42.345 6.93,42.88 6.804,43.344 6.729,43.818 6.705,44.285 6.7,44.4 6.697,44.516 6.697,44.638 c 0.001,0.196 0.01,0.392 0.029,0.587 0.053,0.515 0.487,0.898 0.994,0.898 0.033,0 0.067,-0.002 0.103,-0.005 0.549,-0.057 0.949,-0.547 0.894,-1.097 -0.014,-0.131 -0.019,-0.264 -0.02,-0.39 0,-0.083 0.003,-0.166 0.007,-0.248 0.016,-0.324 0.068,-0.655 0.156,-0.981 z" />
	<path
   style="fill:#ffffff;fill-opacity:1"
   id="path896"
   d="m 44.698,27.81 c -0.794,-0.106 -1.604,-0.041 -2.386,0.181 -0.532,0.149 -0.841,0.702 -0.69,1.233 0.124,0.441 0.525,0.729 0.961,0.729 0.091,0 0.182,-0.012 0.272,-0.038 0.52,-0.146 1.055,-0.192 1.575,-0.122 0.562,0.07 1.052,-0.311 1.125,-0.857 0.074,-0.549 -0.31,-1.052 -0.857,-1.126 z" />
	<path
   style="fill:#ffffff;fill-opacity:1"
   id="path898"
   d="m 46.688,32.764 c -0.163,0.527 0.133,1.088 0.66,1.25 0.099,0.031 0.197,0.045 0.295,0.045 0.428,0 0.823,-0.275 0.955,-0.705 0.099,-0.318 0.16,-0.641 0.183,-0.963 0.005,-0.083 0.008,-0.167 0.008,-0.25 0,-0.468 -0.086,-0.937 -0.255,-1.392 -0.192,-0.519 -0.771,-0.781 -1.285,-0.59 -0.519,0.192 -0.782,0.768 -0.59,1.285 0.086,0.232 0.13,0.467 0.13,0.696 l -0.003,0.117 c -0.012,0.166 -0.044,0.332 -0.098,0.507 z" />
	<path
   style="fill:#ffffff;fill-opacity:1"
   id="path900"
   d="m 17.481,45.164 c -0.586,0.275 -1.183,0.53 -1.774,0.759 -0.515,0.198 -0.771,0.777 -0.572,1.293 0.153,0.396 0.531,0.64 0.933,0.64 0.12,0 0.242,-0.021 0.36,-0.067 0.635,-0.245 1.275,-0.519 1.903,-0.813 0.5,-0.234 0.715,-0.83 0.48,-1.33 -0.233,-0.501 -0.827,-0.718 -1.33,-0.482 z" />
	<path
   style="fill:#ffffff;fill-opacity:1"
   id="path902"
   d="m 10.201,41.001 c 0.161,0 0.325,-0.039 0.478,-0.122 0.288,-0.157 0.595,-0.255 0.911,-0.289 0.135,-0.016 0.273,-0.016 0.406,0.002 0.563,0.073 1.05,-0.313 1.122,-0.86 0.072,-0.548 -0.313,-1.05 -0.86,-1.122 -0.298,-0.039 -0.601,-0.041 -0.891,-0.008 -0.574,0.063 -1.128,0.239 -1.646,0.521 -0.485,0.265 -0.664,0.871 -0.399,1.356 0.182,0.334 0.525,0.522 0.879,0.522 z" />
	<path
   style="fill:#ffffff;fill-opacity:1"
   id="path904"
   d="m 9.993,48.842 c 0.216,0.056 0.436,0.098 0.654,0.124 0.256,0.031 0.512,0.047 0.769,0.047 0.313,0 0.627,-0.022 0.94,-0.062 0.548,-0.069 0.937,-0.569 0.867,-1.117 -0.07,-0.548 -0.567,-0.934 -1.117,-0.867 -0.404,0.052 -0.812,0.064 -1.216,0.015 -0.132,-0.017 -0.264,-0.042 -0.394,-0.075 -0.535,-0.143 -1.08,0.181 -1.22,0.716 -0.137,0.535 0.183,1.081 0.717,1.219 z" />
</g>
<g
   id="g908">
</g>
<g
   id="g910">
</g>
<g
   id="g912">
</g>
<g
   id="g914">
</g>
<g
   id="g916">
</g>
<g
   id="g918">
</g>
<g
   id="g920">
</g>
<g
   id="g922">
</g>
<g
   id="g924">
</g>
<g
   id="g926">
</g>
<g
   id="g928">
</g>
<g
   id="g930">
</g>
<g
   id="g932">
</g>
<g
   id="g934">
</g>
<g
   id="g936">
</g>
</svg>