<?xml version="1.0" encoding="UTF-8" standalone="no"?>
<svg
   xmlns:dc="http://purl.org/dc/elements/1.1/"
   xmlns:cc="http://creativecommons.org/ns#"
   xmlns:rdf="http://www.w3.org/1999/02/22-rdf-syntax-ns#"
   xmlns:svg="http://www.w3.org/2000/svg"
   xmlns="http://www.w3.org/2000/svg"
   id="svg880"
   height="32px"
   width="32px"
   version="1.1"
   viewBox="0 0 32 32">
  <metadata
     id="metadata886">
    <rdf:RDF>
      <cc:Work
         rdf:about="">
        <dc:format>image/svg+xml</dc:format>
        <dc:type
           rdf:resource="http://purl.org/dc/dcmitype/StillImage" />
        <dc:title></dc:title>
      </cc:Work>
    </rdf:RDF>
  </metadata>
  <defs
     id="defs884" />
  <g
     id="surface1">
    <path
       style="fill:#ffffff;fill-opacity:1"
       id="path877"
       d="M 16,4 C 10.886719,4 6.617188,7.160156 4.875,11.625 l 1.84375,0.75 C 8.175781,8.640625 11.710938,6 16,6 c 3.242188,0 6.132813,1.589844 7.9375,4 H 20 v 2 h 7 V 5 H 25 V 8.09375 C 22.808594,5.582031 19.570313,4 16,4 Z m 9.28125,15.625 C 23.824219,23.359375 20.289063,26 16,26 12.722656,26 9.84375,24.386719 8.03125,22 H 12 V 20 H 5 v 7 H 7 V 23.90625 C 9.1875,26.386719 12.394531,28 16,28 c 5.113281,0 9.382813,-3.160156 11.125,-7.625 z" />
  </g>
</svg>
